<svg width="532" height="370" xmlns="http://www.w3.org/2000/svg" xmlns:xlink="http://www.w3.org/1999/xlink" xml:space="preserve" overflow="hidden"><g transform="translate(-1382 -849)"><path d="M1648 926 1648 991.471" stroke="#000000" stroke-width="13.75" stroke-linecap="round" stroke-miterlimit="8" fill="none" fill-rule="evenodd"/><path d="M1531 1022.17C1531 1005.51 1544.51 992 1561.17 992L1734.83 992C1751.49 992 1765 1005.51 1765 1022.17L1765 1142.83C1765 1159.49 1751.49 1173 1734.83 1173L1561.17 1173C1544.51 1173 1531 1159.49 1531 1142.83Z" stroke="#042433" stroke-width="10.3125" stroke-miterlimit="8" fill="#C1E5F5" fill-rule="evenodd"/><path d="M1387 908.5C1387 878.4 1503.85 854 1648 854 1792.15 854 1909 878.4 1909 908.5 1909 938.599 1792.15 963 1648 963 1503.85 963 1387 938.599 1387 908.5Z" stroke="#042433" stroke-width="10.3125" stroke-miterlimit="8" fill="#F2F2F2" fill-rule="evenodd" fill-opacity="0.501961"/><path d="M0 0 79.349 66.48" stroke="#000000" stroke-width="10.3125" stroke-linecap="round" stroke-miterlimit="8" fill="none" fill-rule="evenodd" transform="matrix(-1 0 0 1 1530.35 1083)"/><path d="M1505.62 1213.45 1451 1149" stroke="#000000" stroke-width="10.3125" stroke-linecap="round" stroke-miterlimit="8" fill="none" fill-rule="evenodd"/><path d="M1765 1083 1844.35 1149.48" stroke="#000000" stroke-width="10.3125" stroke-linecap="round" stroke-miterlimit="8" fill="none" fill-rule="evenodd"/><path d="M0 0 54.625 64.4532" stroke="#000000" stroke-width="10.3125" stroke-linecap="round" stroke-miterlimit="8" fill="none" fill-rule="evenodd" transform="matrix(1 0 0 -1 1789 1213.45)"/></g></svg>