<svg width="431" height="431" xmlns="http://www.w3.org/2000/svg" xmlns:xlink="http://www.w3.org/1999/xlink" xml:space="preserve" overflow="hidden"><defs><clipPath id="clip0"><rect x="1078" y="1708" width="431" height="431"/></clipPath></defs><g clip-path="url(#clip0)" transform="translate(-1078 -1708)"><rect x="1078" y="1708" width="431" height="431" fill="#F6C6AD"/><path d="M1136.5 1763.5 1179.11 1763.5" stroke="#C04F15" stroke-width="6.875" stroke-linecap="round" stroke-miterlimit="8" fill="none" fill-rule="evenodd"/><path d="M1233.5 1801.5 1328.4 1801.5" stroke="#C04F15" stroke-width="6.875" stroke-linecap="round" stroke-miterlimit="8" fill="none" fill-rule="evenodd"/><path d="M1170.5 1850.5 1213.11 1850.5" stroke="#C04F15" stroke-width="6.875" stroke-linecap="round" stroke-miterlimit="8" fill="none" fill-rule="evenodd"/><path d="M1409.5 1771.5 1452.11 1771.5" stroke="#C04F15" stroke-width="6.875" stroke-linecap="round" stroke-miterlimit="8" fill="none" fill-rule="evenodd"/><path d="M1407.5 1865.5 1428.86 1865.5" stroke="#C04F15" stroke-width="6.875" stroke-linecap="round" stroke-miterlimit="8" fill="none" fill-rule="evenodd"/><path d="M1267.5 1916.5 1310.11 1916.5" stroke="#C04F15" stroke-width="6.875" stroke-linecap="round" stroke-miterlimit="8" fill="none" fill-rule="evenodd"/><path d="M1181.5 1989.5 1276.4 1989.5" stroke="#C04F15" stroke-width="6.875" stroke-linecap="round" stroke-miterlimit="8" fill="none" fill-rule="evenodd"/><path d="M1118.5 2038.5 1161.11 2038.5" stroke="#C04F15" stroke-width="6.875" stroke-linecap="round" stroke-miterlimit="8" fill="none" fill-rule="evenodd"/><path d="M1433.5 2104.5 1454.86 2104.5" stroke="#C04F15" stroke-width="6.875" stroke-linecap="round" stroke-miterlimit="8" fill="none" fill-rule="evenodd"/><path d="M1216.5 2104.5 1259.11 2104.5" stroke="#C04F15" stroke-width="6.875" stroke-linecap="round" stroke-miterlimit="8" fill="none" fill-rule="evenodd"/><path d="M1129.5 1924.5 1150.86 1924.5" stroke="#C04F15" stroke-width="6.875" stroke-linecap="round" stroke-miterlimit="8" fill="none" fill-rule="evenodd"/><path d="M1411.5 1973.5 1454.11 1973.5" stroke="#C04F15" stroke-width="6.875" stroke-linecap="round" stroke-miterlimit="8" fill="none" fill-rule="evenodd"/><path d="M1347.5 2043.5 1419.58 2043.5" stroke="#C04F15" stroke-width="6.875" stroke-linecap="round" stroke-miterlimit="8" fill="none" fill-rule="evenodd"/></g></svg>